<svg width="50" height="66" viewBox="0 0 50 66" fill="none" xmlns="http://www.w3.org/2000/svg">
<g clip-path="url(#clip0_2596_16312)">
<path d="M36.3948 48.5675C37.0627 48.4137 37.6421 48.0008 38.0056 47.4197C38.3691 46.8387 38.4869 46.137 38.333 45.4691L31.372 15.249C31.2181 14.5811 30.8053 14.0017 30.2242 13.6382C29.6431 13.2747 28.9415 13.1569 28.2736 13.3107L13.1635 16.7913C12.4956 16.9451 11.9162 17.358 11.5527 17.9391C11.1892 18.5201 11.0714 19.2218 11.2253 19.8897L18.1863 50.1098C18.3401 50.7777 18.753 51.3571 19.3341 51.7206C19.9152 52.0841 20.6168 52.2019 21.2847 52.048L36.3948 48.5675ZM21.8648 54.5664C20.529 54.8741 19.1257 54.6385 17.9635 53.9115C16.8014 53.1846 15.9756 52.0257 15.668 50.6899L8.70691 20.4698C8.39921 19.134 8.63477 17.7306 9.36175 16.5685C10.0887 15.4064 11.2476 14.5806 12.5834 14.2729L27.6935 10.7924C29.0293 10.4847 30.4326 10.7203 31.5947 11.4472C32.7569 12.1742 33.5826 13.3331 33.8903 14.6689L40.8514 44.889C41.1591 46.2248 40.9235 47.6282 40.1965 48.7903C39.4695 49.9524 38.3107 50.7782 36.9749 51.0859L21.8648 54.5664Z" fill="black"/>
<path d="M21.4665 18.2899C21.9245 18.1844 22.4056 18.2651 22.8041 18.5144C23.2025 18.7636 23.4856 19.161 23.5911 19.6189C23.6966 20.0769 23.6158 20.5581 23.3666 20.9565C23.1173 21.355 22.72 21.6381 22.262 21.7436C21.804 21.8491 21.3229 21.7683 20.9244 21.5191C20.526 21.2698 20.2429 20.8725 20.1374 20.4145C20.0319 19.9565 20.1126 19.4754 20.3619 19.0769C20.6112 18.6785 21.0085 18.3954 21.4665 18.2899Z" fill="black"/>
</g>
<g opacity="0.4">
<path d="M11.8807 61.2529C11.7356 61.1846 11.5787 61.1453 11.419 61.1374C9.38464 61.0233 7.4647 60.1303 6.06204 58.6458C4.65939 57.1612 3.88304 55.2005 3.89592 53.175C3.90053 53.0147 3.8729 52.8547 3.81465 52.7044C3.7564 52.5541 3.6687 52.4165 3.55671 52.2998C3.44471 52.183 3.31066 52.0894 3.16242 52.0245C3.01418 51.9595 2.85474 51.9245 2.69344 51.9215C2.53214 51.9185 2.37223 51.9476 2.22309 52.007C2.07395 52.0664 1.93857 52.1549 1.8249 52.2675C1.71124 52.38 1.62156 52.5143 1.56114 52.6624C1.50072 52.8104 1.47077 52.9694 1.47304 53.1298C1.45564 55.7788 2.47053 58.3433 4.30471 60.2851C6.1389 62.2269 8.64978 63.395 11.3104 63.5444C11.47 63.5544 11.6296 63.5329 11.7801 63.4812C11.9306 63.4295 12.069 63.3485 12.1873 63.243C12.3056 63.1375 12.4015 63.0095 12.4695 62.8664C12.5374 62.7233 12.5761 62.568 12.5833 62.4092C12.5904 62.2505 12.5659 62.0916 12.5112 61.9416C12.4565 61.7917 12.3726 61.6536 12.2644 61.5354C12.1562 61.4172 12.0258 61.3212 11.8807 61.2529Z" fill="black"/>
<path d="M12.0979 56.4389C11.9529 56.3707 11.796 56.3314 11.6363 56.3235C10.8783 56.2811 10.1606 55.9574 9.62517 55.4165C9.08975 54.8756 8.7756 54.1568 8.74483 53.4023C8.73236 53.0826 8.59279 52.7795 8.35684 52.5597C8.12088 52.3398 7.80787 52.2212 7.48666 52.23C7.16544 52.2387 6.86234 52.3741 6.64403 52.6063C6.42572 52.8385 6.31009 53.1485 6.32256 53.4682C6.37695 54.827 6.94205 56.1219 7.906 57.0965C8.86994 58.071 10.1625 58.6542 11.5276 58.7305C11.6872 58.7405 11.8469 58.719 11.9974 58.6673C12.1479 58.6156 12.2863 58.5346 12.4046 58.4291C12.5229 58.3236 12.6188 58.1956 12.6867 58.0525C12.7547 57.9094 12.7934 57.7541 12.8005 57.5953C12.8077 57.4366 12.7832 57.2777 12.7285 57.1277C12.6737 56.9777 12.5899 56.8397 12.4816 56.7215C12.3734 56.6033 12.243 56.5072 12.0979 56.4389Z" fill="black"/>
</g>
<g opacity="0.4">
<path d="M38.1886 4.7706C38.334 4.8382 38.4911 4.87668 38.6508 4.88381C40.6857 4.98817 42.61 5.87199 44.02 7.34983C45.4299 8.82767 46.2159 10.7847 46.213 12.8101C46.2092 12.9705 46.2376 13.1304 46.2966 13.2804C46.3555 13.4304 46.4439 13.5675 46.5565 13.6837C46.6691 13.8 46.8036 13.8929 46.9521 13.9572C47.1007 14.0214 47.2603 14.0556 47.4216 14.0579C47.5829 14.0601 47.7427 14.0303 47.8915 13.9702C48.0404 13.9101 48.1753 13.8208 48.2884 13.7077C48.4015 13.5947 48.4906 13.46 48.5502 13.3116C48.6099 13.1633 48.6391 13.0042 48.6361 12.8437C48.6404 10.1947 47.613 7.63513 45.7692 5.70212C43.9255 3.76911 41.4089 2.61298 38.7476 2.47636C38.588 2.46712 38.4285 2.48936 38.2782 2.5418C38.128 2.59424 37.99 2.67585 37.8722 2.78192C37.7544 2.88799 37.6591 3.01643 37.5919 3.15985C37.5246 3.30327 37.4867 3.45884 37.4804 3.61759C37.474 3.77634 37.4992 3.93514 37.5547 4.08485C37.6102 4.23456 37.6947 4.37223 37.8035 4.48992C37.9123 4.60761 38.0432 4.703 38.1886 4.7706Z" fill="black"/>
<path d="M37.995 9.58549C38.1404 9.65309 38.2975 9.69157 38.4572 9.6987C39.2155 9.73749 39.9347 10.0577 40.4728 10.5961C41.0108 11.1345 41.3285 11.8517 41.363 12.6061C41.3771 12.9257 41.5181 13.2281 41.7551 13.4468C41.9922 13.6655 42.3058 13.7826 42.6269 13.7724C42.9481 13.7621 43.2505 13.6253 43.4677 13.392C43.6849 13.1588 43.799 12.8482 43.7849 12.5286C43.7239 11.17 43.1524 9.87785 42.1837 8.90793C41.2149 7.938 39.9196 7.36104 38.554 7.29126C38.3944 7.28202 38.2349 7.30426 38.0846 7.3567C37.9344 7.40914 37.7964 7.49074 37.6786 7.59681C37.5608 7.70288 37.4655 7.83133 37.3983 7.97475C37.3311 8.11817 37.2931 8.27373 37.2868 8.43248C37.2804 8.59123 37.3056 8.75003 37.3611 8.89974C37.4166 9.04946 37.5011 9.18712 37.6099 9.30481C37.7187 9.4225 37.8496 9.51789 37.995 9.58549Z" fill="black"/>
</g>
<defs>
<clipPath id="clip0_2596_16312">
<rect width="41.3486" height="41.3486" fill="white" transform="translate(0 17.1731) rotate(-12.9715)"/>
</clipPath>
</defs>
</svg>
