<svg width="378" height="301" viewBox="0 0 378 301" fill="none" xmlns="http://www.w3.org/2000/svg">
<g clip-path="url(#clip0_1566_4766)">
<path d="M162.514 194.622H136.207V179.578V118.432H30.6508H0V179.578V257.342H30.6508H51.6109H136.207H162.514V194.622Z" fill="#222222"/>
<path d="M307.789 281.29H377.971V178.949H307.789V281.29ZM309.916 181.086H375.844V279.168H309.916V181.086Z" fill="#222222"/>
<path d="M346.779 75.0653V-0.487061H222.551V63.3676H243.123V143.69H377.999V75.0653H346.772H346.779ZM375.88 141.568H245.257V61.2453H224.685V1.64238H344.66V77.2019H375.887V141.568H375.88Z" fill="#222222"/>
<path d="M172.927 46.6317L127.883 -39L126.005 -38.0063L171.042 47.6255L188.091 80.0426H0V82.172H189.211L252.091 201.704L203.516 239.481L166.242 162.991L165.945 162.395H165.675V162.374H156.374L160.33 158.427L158.841 156.965L152.341 163.453L158.841 169.962L160.33 168.478L156.374 164.539H164.626L202.751 242.774L252.381 204.175V301H254.508V201.733L172.927 46.6317Z" fill="#222222"/>
<path d="M25.7589 173.33C25.7462 174.834 26.6793 176.275 28.463 176.859L27.7012 177.964C26.4825 177.526 25.6002 176.675 25.0924 175.602C24.5909 176.834 23.6451 177.805 22.2803 178.294L21.5313 177.177C23.3912 176.535 24.337 175.006 24.337 173.368V172.34H25.7589V173.33ZM23.2833 183.08V178.878H30.6973V183.08H23.2833ZM24.6798 181.937H29.3008V180.008H24.6798V181.937ZM29.2882 178.408V171.743H30.6973V174.447H32.2969V175.602H30.6973V178.408H29.2882ZM36.8231 173.393C36.8167 174.955 37.7308 176.383 39.5272 176.948L38.7655 178.052C37.515 177.608 36.639 176.77 36.1502 175.685C35.6424 176.935 34.6839 177.919 33.2938 178.408L32.5448 177.265C34.4427 176.643 35.3949 175.114 35.4012 173.457V172.365H36.8231V173.393ZM34.4491 181.01C34.4364 179.614 35.9281 178.795 38.3465 178.802C40.7777 178.795 42.263 179.614 42.2694 181.01C42.263 182.407 40.7777 183.207 38.3465 183.207C35.9281 183.207 34.4364 182.407 34.4491 181.01ZM35.8455 181.01C35.8392 181.709 36.7533 182.096 38.3465 182.102C39.9525 182.096 40.8602 181.709 40.8602 181.01C40.8602 180.287 39.9525 179.9 38.3465 179.893C36.7533 179.9 35.8392 180.287 35.8455 181.01ZM38.5369 175.12V173.965H40.8221V171.743H42.2313V178.497H40.8221V175.12H38.5369ZM53.2066 171.756V180.135H51.7975V175.932H49.7662V174.79H51.7975V171.756H53.2066ZM43.5709 177.659C45.399 177.056 46.3766 175.558 46.3766 174.028V173.723H43.9898V172.581H50.1851V173.723H47.8111V174.041C47.8111 175.418 48.7379 176.846 50.5152 177.43L49.8043 178.56C48.5221 178.122 47.6143 177.246 47.1129 176.161C46.6114 177.367 45.6529 178.332 44.2945 178.802L43.5709 177.659ZM45.6783 182.991V179.398H47.0875V181.848H53.4986V182.991H45.6783ZM58.6849 175.006C58.6786 176.777 59.745 178.795 61.5541 179.639L60.7669 180.757C59.472 180.147 58.5135 178.916 57.9994 177.481C57.4789 179.055 56.4759 180.401 55.1556 181.036L54.3304 179.931C56.1585 179.062 57.2694 176.916 57.2757 175.006V174.041H54.7748V172.873H61.0843V174.041H58.6849V175.006ZM62.1507 183.219V171.743H63.5599V176.212H65.3246V177.392H63.5599V183.219H62.1507ZM72.6122 174.498C72.6058 176.631 73.6278 178.725 75.4559 179.525L74.6053 180.655C73.3104 180.02 72.3964 178.802 71.9076 177.297C71.4061 178.884 70.4667 180.204 69.1464 180.871L68.2577 179.728C70.1302 178.852 71.1713 176.643 71.1776 174.498V172.67H72.6122V174.498ZM74.1864 176.593V175.45H76.5985V171.743H77.995V183.232H76.5985V176.593H74.1864ZM84.5651 171.857C87.1803 171.864 88.6974 172.562 88.7037 173.825C88.6974 175.107 87.1803 175.799 84.5651 175.805C81.9562 175.799 80.4264 175.107 80.4264 173.825C80.4264 172.562 81.9562 171.864 84.5651 171.857ZM79.3473 177.507V176.402H89.8082V177.507H85.2633V178.383H88.5006V181.188H81.9752V182.039H88.818V183.118H80.5914V180.185H87.1168V179.424H80.5787V178.383H83.8541V177.507H79.3473ZM81.9117 173.825C81.9054 174.46 82.8195 174.752 84.5651 174.764C86.3361 174.752 87.2438 174.46 87.2438 173.825C87.2438 173.235 86.3361 172.917 84.5651 172.911C82.8195 172.917 81.9054 173.235 81.9117 173.825ZM90.7924 182.09V172.898H94.2455C96.3529 172.898 97.4765 174.079 97.4828 175.831C97.4765 177.081 96.9052 178.008 95.8261 178.446L97.8129 182.09H95.9721L94.1693 178.725H92.4428V182.09H90.7924ZM92.4428 177.342H93.9916C95.2357 177.348 95.7943 176.815 95.7943 175.831C95.7943 174.853 95.2357 174.282 93.9916 174.282H92.4428V177.342ZM101.323 182.217C99.4445 182.223 98.2892 181.112 98.2892 179.652C98.2892 178.567 98.9874 177.906 100.016 177.196C99.4889 176.542 99.0763 175.869 99.0763 175.056C99.0763 173.749 100.028 172.784 101.476 172.784C102.923 172.784 103.818 173.742 103.812 174.866C103.818 175.742 103.361 176.408 102.593 176.961L102.009 177.392L103.691 179.366C103.932 178.909 104.078 178.37 104.078 177.76H105.475C105.468 179.024 105.119 179.919 104.675 180.515L106.021 182.09H104.269L103.678 181.417C103.025 181.969 102.13 182.223 101.323 182.217ZM99.8761 179.576C99.8761 180.306 100.466 180.89 101.374 180.896C101.863 180.896 102.364 180.719 102.796 180.407L100.885 178.211L100.739 178.319C100.117 178.776 99.8761 179.259 99.8761 179.576ZM100.511 175.082C100.517 175.501 100.797 175.926 101.177 176.402L101.704 176.047C102.187 175.736 102.441 175.406 102.441 174.942C102.441 174.542 102.085 174.111 101.501 174.117C100.917 174.111 100.517 174.58 100.511 175.082ZM109.76 182.09H106.637V172.898H109.81C112.553 172.898 114.209 174.618 114.216 177.481C114.209 180.357 112.553 182.09 109.76 182.09ZM108.287 180.655H109.671C111.594 180.661 112.565 179.601 112.565 177.481C112.565 175.374 111.594 174.326 109.722 174.333H108.287V180.655ZM45.8687 202.09H44.1041L47.3414 192.898H49.3727L52.6227 202.09H50.858L50.0899 199.817H46.6305L45.8687 202.09ZM47.0748 198.484H49.6456L48.3951 194.777H48.3189L47.0748 198.484ZM58.8753 192.733V193.888H54.889V195.932H58.6722V197.05H54.889V199.411C56.6537 199.405 58.0375 199.328 59.6371 199.068L59.764 200.211C58.0057 200.496 56.4569 200.553 54.4066 200.553H53.4544V192.733H58.8753ZM60.5638 203.219V191.743H61.973V196.186H63.7376V197.367H61.973V203.219H60.5638ZM73.6466 191.756V203.207H72.212V200.579H69.7745V199.512H72.212V191.756H73.6466ZM63.9093 197.646C66.0675 197.64 68.9366 197.634 71.4249 197.291L71.5138 198.332C70.4601 198.51 69.3746 198.624 68.3146 198.694V202.864H66.8927V198.763C65.8898 198.802 64.9376 198.802 64.087 198.802L63.9093 197.646ZM64.7345 194.574C64.7345 193.209 65.9532 192.251 67.6798 192.251C69.3683 192.251 70.5997 193.209 70.5997 194.574C70.5997 195.97 69.3683 196.878 67.6798 196.885C65.9532 196.878 64.7345 195.97 64.7345 194.574ZM66.0675 194.574C66.0611 195.342 66.715 195.805 67.6798 195.805C68.5939 195.805 69.254 195.342 69.254 194.574C69.254 193.825 68.6002 193.33 67.6798 193.33C66.715 193.33 66.0611 193.825 66.0675 194.574ZM78.1412 202.09V200.896L81.3912 197.76C82.318 196.834 82.8004 196.288 82.8004 195.513C82.8004 194.656 82.1212 194.117 81.2262 194.117C80.2804 194.117 79.671 194.707 79.6774 195.64H78.1032C78.0968 193.901 79.4044 192.771 81.2389 192.771C83.1178 192.771 84.381 193.895 84.3873 195.437C84.381 196.472 83.8859 197.31 82.0768 199.017L80.4391 200.642V200.706H84.527V202.09H78.1412ZM85.8031 202.09V192.898H91.6937V194.282H87.4535V196.796H91.2875V198.179H87.4535V202.09H85.8031ZM50.9085 211.756V217.557H49.5628V215.298H48.3568V217.469H47.0238V211.971H48.3568V214.18H49.5628V211.756H50.9085ZM41.1077 216.91C43.2786 216.199 44.3768 215.069 44.5863 213.558H41.6156V212.428H46.0716C46.0653 215.158 44.6497 216.929 41.7679 217.938L41.1077 216.91ZM43.139 219.132V218.002H50.9085V221.01H44.5609V221.963H51.3148V223.08H43.1517V219.957H49.512V219.132H43.139ZM61.6808 211.743V223.232H60.2716V217.126H58.3038V215.97H60.2716V211.743H61.6808ZM52.4513 213.888V212.746H57.6436V216.948H53.8858V219.36C55.5934 219.354 56.9644 219.297 58.5069 219.017L58.6212 220.173C56.9137 220.471 55.3775 220.534 53.4034 220.541H52.4893V215.805H56.2599V213.888H52.4513ZM72.6053 211.743V223.232H71.2088V211.743H72.6053ZM63.6678 213.888V212.746H69.076V217.05H65.1278V219.36C66.9369 219.347 68.492 219.252 70.2821 218.954L70.409 220.109C68.4603 220.446 66.7464 220.522 64.6834 220.515H63.6805V215.932H67.6415V213.888H63.6678ZM80.9594 212.898V222.09H79.2963V214.51H79.2455L77.1 215.882V214.371L79.3724 212.898H80.9594ZM84.2794 221.188L83.213 224.743H82.007L82.6671 221.188H84.2794ZM88.3044 222.09V220.896L91.5544 217.76C92.4811 216.834 92.9635 216.288 92.9635 215.513C92.9635 214.656 92.2843 214.117 91.3893 214.117C90.4435 214.117 89.8341 214.707 89.8405 215.64H88.2663C88.2599 213.901 89.5675 212.771 91.402 212.771C93.2809 212.771 94.5441 213.895 94.5504 215.437C94.5441 216.472 94.049 217.31 92.2399 219.017L90.6022 220.642V220.706H94.6901V222.09H88.3044Z" fill="#FF60B9"/>
<path d="M273.211 45.533H270.088V36.3416H273.262C276.004 36.3416 277.667 38.0681 277.667 40.9246C277.667 43.7937 276.004 45.533 273.211 45.533ZM271.739 44.0984H273.122C275.039 44.0984 276.017 43.0447 276.017 40.9246C276.017 38.8171 275.039 37.7761 273.173 37.7761H271.739V44.0984ZM284.288 36.1765V37.3318H280.302V39.3757H284.085V40.4929H280.302V42.8542C282.066 42.8416 283.444 42.7781 285.05 42.5115L285.177 43.6541C283.412 43.9333 281.876 43.9968 279.819 43.9968H278.867V36.1765H284.288ZM287.386 35.1863V39.6296H289.15V40.8103H287.386V46.6628H285.977V35.1863H287.386ZM299.059 35.199V46.6501H297.625V44.0222H295.187V42.9558H297.625V35.199H299.059ZM289.322 41.0896C291.48 41.0896 294.349 41.0769 296.838 40.7341L296.927 41.7751C295.873 41.9592 294.787 42.0671 293.727 42.1306V46.3074H292.305V42.2068C291.302 42.2385 290.35 42.2449 289.5 42.2449L289.322 41.0896ZM293.093 35.6941C294.781 35.6941 296.012 36.6462 296.012 38.0173C296.012 39.4138 294.781 40.3279 293.093 40.3279C291.366 40.3279 290.147 39.4138 290.147 38.0173C290.147 36.6462 291.366 35.6941 293.093 35.6941ZM293.093 36.7732C292.128 36.7732 291.48 37.2683 291.48 38.0173C291.48 38.7917 292.128 39.2488 293.093 39.2488C294.007 39.2488 294.667 38.7917 294.667 38.0173C294.667 37.2683 294.007 36.7732 293.093 36.7732Z" fill="#222222"/>
<path d="M296.586 111.619V102.427H302.565V103.811H298.236V106.325H302.248V107.708H298.236V110.222H302.591V111.619H296.586ZM309.313 102.262V103.417H305.327V105.461H309.11V106.579H305.327V108.94C307.091 108.927 308.469 108.864 310.075 108.597L310.202 109.74C308.437 110.019 306.901 110.083 304.844 110.083H303.892V102.262H309.313ZM312.411 101.272V105.715H314.175V106.896H312.411V112.749H311.001V101.272H312.411ZM324.084 101.285V112.736H322.65V110.108H320.212V109.042H322.65V101.285H324.084ZM314.347 107.175C316.505 107.175 319.374 107.163 321.863 106.82L321.951 107.861C320.898 108.045 319.812 108.153 318.752 108.216V112.393H317.33V108.292C316.327 108.324 315.375 108.331 314.525 108.331L314.347 107.175ZM318.117 101.78C319.806 101.78 321.037 102.732 321.037 104.103C321.037 105.5 319.806 106.414 318.117 106.414C316.391 106.414 315.172 105.5 315.172 104.103C315.172 102.732 316.391 101.78 318.117 101.78ZM318.117 102.859C317.153 102.859 316.505 103.354 316.505 104.103C316.505 104.877 317.153 105.334 318.117 105.334C319.032 105.334 319.692 104.877 319.692 104.103C319.692 103.354 319.032 102.859 318.117 102.859Z" fill="#222222"/>
<path d="M330.42 238.623V229.431H336.311V230.815H332.071V233.329H335.905V234.712H332.071V238.623H330.42ZM342.868 229.266V230.421H338.882V232.465H342.665V233.583H338.882V235.944C340.647 235.938 342.03 235.861 343.63 235.601L343.757 236.744C341.999 237.029 340.45 237.086 338.399 237.086H337.447V229.266H342.868ZM344.557 239.752V228.276H345.966V232.719H347.731V233.9H345.966V239.752H344.557ZM357.639 228.289V239.74H356.205V237.112H353.767V236.045H356.205V228.289H357.639ZM347.902 234.179C350.06 234.173 352.929 234.167 355.418 233.824L355.507 234.865C354.453 235.042 353.367 235.157 352.307 235.227V239.397H350.886V235.296C349.883 235.334 348.93 235.334 348.08 235.334L347.902 234.179ZM348.727 231.107C348.727 229.742 349.946 228.784 351.673 228.784C353.361 228.784 354.593 229.742 354.593 231.107C354.593 232.503 353.361 233.411 351.673 233.417C349.946 233.411 348.727 232.503 348.727 231.107ZM350.06 231.107C350.054 231.875 350.708 232.338 351.673 232.338C352.587 232.338 353.247 231.875 353.247 231.107C353.247 230.358 352.593 229.863 351.673 229.863C350.708 229.863 350.054 230.358 350.06 231.107Z" fill="#222222"/>
</g>
<defs>
<clipPath id="clip0_1566_4766">
<rect width="378" height="301" fill="white"/>
</clipPath>
</defs>
</svg>
