<svg width="378" height="301" viewBox="0 0 378 301" fill="none" xmlns="http://www.w3.org/2000/svg">
<g clip-path="url(#clip0_1566_4766)">
<path d="M162.514 194.622H136.207V179.578V118.432H30.6508H0V179.578V257.342H30.6508H51.6109H136.207H162.514V194.622Z" fill="#222222"/>
<path d="M307.789 281.29H377.971V178.949H307.789V281.29ZM309.916 181.086H375.844V279.168H309.916V181.086Z" fill="#222222"/>
<path d="M346.779 75.0653V-0.487061H222.551V63.3676H243.123V143.69H377.999V75.0653H346.772H346.779ZM375.88 141.568H245.257V61.2453H224.685V1.64238H344.66V77.2019H375.887V141.568H375.88Z" fill="#222222"/>
<path d="M172.927 46.6317L127.883 -39L126.005 -38.0063L171.042 47.6255L188.091 80.0426H0V82.172H189.211L252.091 201.704L203.516 239.481L166.242 162.991L165.945 162.395H165.675V162.374H156.374L160.33 158.427L158.841 156.965L152.341 163.453L158.841 169.962L160.33 168.478L156.374 164.539H164.626L202.751 242.774L252.381 204.175V301H254.508V201.733L172.927 46.6317Z" fill="#222222"/>
<path d="M25.7589 173.33C25.7462 174.828 26.6729 176.275 28.463 176.859L27.7012 177.964C26.4825 177.526 25.6002 176.675 25.0987 175.602C24.5909 176.834 23.6387 177.805 22.2803 178.294L21.5313 177.177C23.3848 176.542 24.337 175.006 24.337 173.368V172.34H25.7589V173.33ZM30.6973 171.743V174.447H32.2969V175.602H30.6973V178.408H29.2882V171.743H30.6973ZM30.6973 178.878V183.08H23.2833V178.878H30.6973ZM24.6798 180.008V181.937H29.3008V180.008H24.6798ZM36.8231 173.393C36.8104 174.955 37.7244 176.377 39.5272 176.948L38.7655 178.052C37.515 177.615 36.639 176.783 36.1502 175.691C35.6424 176.942 34.6839 177.926 33.2938 178.408L32.5448 177.265C34.4491 176.643 35.4012 175.107 35.4012 173.457V172.365H36.8231V173.393ZM42.2313 171.743V178.497H40.8221V175.12H38.5369V173.965H40.8221V171.743H42.2313ZM38.3465 178.802C40.784 178.802 42.2694 179.614 42.2694 181.01C42.2694 182.407 40.784 183.207 38.3465 183.207C35.9217 183.207 34.4364 182.407 34.4491 181.01C34.4364 179.614 35.9217 178.802 38.3465 178.802ZM38.3465 179.893C36.7469 179.893 35.8455 180.287 35.8455 181.01C35.8455 181.709 36.7469 182.102 38.3465 182.102C39.9461 182.102 40.8602 181.709 40.8602 181.01C40.8602 180.287 39.9461 179.893 38.3465 179.893ZM53.2066 171.756V180.135H51.7975V175.932H49.7662V174.79H51.7975V171.756H53.2066ZM53.4986 181.848V182.991H45.6783V179.398H47.0875V181.848H53.4986ZM47.8111 174.041C47.8111 175.425 48.7379 176.846 50.5152 177.43L49.8043 178.56C48.5221 178.122 47.6143 177.253 47.1129 176.161C46.6051 177.373 45.6466 178.332 44.2945 178.802L43.5709 177.659C45.399 177.062 46.3766 175.552 46.3766 174.028V173.723H43.9898V172.581H50.1851V173.723H47.8111V174.041ZM58.6849 175.006C58.6849 176.783 59.7386 178.802 61.5541 179.639L60.7669 180.757C59.472 180.147 58.5135 178.916 57.9994 177.481C57.4789 179.055 56.4759 180.401 55.1556 181.036L54.3304 179.931C56.1585 179.068 57.263 176.91 57.2757 175.006V174.041H54.7748V172.873H61.0843V174.041H58.6849V175.006ZM63.5599 171.743V176.212H65.3246V177.392H63.5599V183.219H62.1507V171.743H63.5599ZM72.6122 174.498C72.6122 176.631 73.6278 178.725 75.4559 179.525L74.6053 180.655C73.3041 180.02 72.39 178.802 71.9012 177.303C71.3998 178.884 70.4667 180.198 69.1464 180.871L68.2577 179.728C70.1239 178.852 71.1649 176.643 71.1776 174.498V172.67H72.6122V174.498ZM77.995 171.743V183.232H76.5985V176.593H74.1864V175.45H76.5985V171.743H77.995ZM84.5651 171.857C87.1803 171.857 88.691 172.555 88.7037 173.825C88.691 175.107 87.1803 175.793 84.5651 175.805C81.9498 175.793 80.4264 175.107 80.4264 173.825C80.4264 172.555 81.9498 171.857 84.5651 171.857ZM84.5651 172.911C82.8131 172.911 81.899 173.228 81.9117 173.825C81.899 174.46 82.8131 174.752 84.5651 174.764C86.3424 174.752 87.2438 174.46 87.2438 173.825C87.2438 173.228 86.3424 172.911 84.5651 172.911ZM89.8082 176.402V177.507H85.2633V178.383H88.5006V181.188H81.9752V182.039H88.818V183.118H80.5914V180.185H87.1168V179.424H80.5787V178.383H83.8541V177.507H79.3473V176.402H89.8082ZM90.7924 182.09V172.898H94.2455C96.3529 172.898 97.4828 174.079 97.4828 175.831C97.4828 177.081 96.9115 178.008 95.8324 178.446L97.8129 182.09H95.9721L94.1693 178.725H92.4428V182.09H90.7924ZM92.4428 177.342H93.9916C95.2357 177.342 95.7943 176.808 95.7943 175.831C95.7943 174.853 95.2357 174.282 93.9916 174.282H92.4428V177.342ZM101.323 182.217C99.4445 182.217 98.2892 181.112 98.2892 179.652C98.2892 178.573 98.9938 177.9 100.016 177.189C99.4826 176.542 99.0763 175.875 99.0763 175.056C99.0763 173.749 100.028 172.784 101.476 172.784C102.923 172.784 103.812 173.749 103.812 174.866C103.812 175.742 103.355 176.402 102.593 176.961L102.009 177.392L103.697 179.36C103.932 178.909 104.078 178.37 104.078 177.76H105.475C105.475 179.024 105.126 179.919 104.675 180.515L106.021 182.09H104.269L103.685 181.417C103.025 181.963 102.136 182.217 101.323 182.217ZM99.8761 179.576C99.8761 180.312 100.46 180.896 101.374 180.896C101.863 180.896 102.364 180.725 102.809 180.401L100.892 178.205L100.739 178.319C100.117 178.776 99.8761 179.259 99.8761 179.576ZM100.511 175.082C100.511 175.501 100.797 175.926 101.184 176.402L101.704 176.047C102.187 175.729 102.441 175.412 102.441 174.942C102.441 174.536 102.085 174.104 101.501 174.117C100.917 174.117 100.511 174.574 100.511 175.082ZM109.76 182.09H106.637V172.898H109.81C112.553 172.898 114.216 174.625 114.216 177.481C114.216 180.35 112.553 182.09 109.76 182.09ZM108.287 180.655H109.671C111.588 180.655 112.565 179.601 112.565 177.481C112.565 175.374 111.588 174.333 109.722 174.333H108.287V180.655ZM25.7304 202.09H23.9658L27.2031 192.898H29.2343L32.4843 202.09H30.7197L29.958 199.817H26.4921L25.7304 202.09ZM26.9365 198.484H29.5136L28.2568 194.777H28.1806L26.9365 198.484ZM38.737 192.733V193.888H34.7507V195.932H38.5339V197.05H34.7507V199.411C36.5153 199.398 37.8928 199.335 39.4987 199.068L39.6257 200.211C37.861 200.49 36.3249 200.553 34.2683 200.553H33.3161V192.733H38.737ZM41.8347 191.743V196.186H43.5993V197.367H41.8347V203.219H40.4255V191.743H41.8347ZM53.5083 191.756V203.207H52.0737V200.579H49.6362V199.512H52.0737V191.756H53.5083ZM43.771 197.646C45.9292 197.646 48.7983 197.634 51.2866 197.291L51.3755 198.332C50.3218 198.516 49.2363 198.624 48.1762 198.687V202.864H46.7544V198.763C45.7514 198.795 44.7993 198.802 43.9487 198.802L43.771 197.646ZM47.5415 192.251C49.23 192.251 50.4614 193.203 50.4614 194.574C50.4614 195.97 49.23 196.885 47.5415 196.885C45.8149 196.885 44.5962 195.97 44.5962 194.574C44.5962 193.203 45.8149 192.251 47.5415 192.251ZM47.5415 193.33C46.5766 193.33 45.9292 193.825 45.9292 194.574C45.9292 195.348 46.5766 195.805 47.5415 195.805C48.4555 195.805 49.1157 195.348 49.1157 194.574C49.1157 193.825 48.4555 193.33 47.5415 193.33ZM67.1689 191.743V203.232H65.7471V191.743H67.1689ZM60.9863 192.581C62.7129 192.581 63.9697 194.155 63.9824 196.631C63.9697 199.132 62.7129 200.693 60.9863 200.693C59.2471 200.693 57.9902 199.132 57.9902 196.631C57.9902 194.155 59.2471 192.581 60.9863 192.581ZM60.9863 193.85C60.0088 193.85 59.3486 194.879 59.3486 196.631C59.3486 198.395 60.0088 199.424 60.9863 199.424C61.9512 199.424 62.6113 198.395 62.6113 196.631C62.6113 194.879 61.9512 193.85 60.9863 193.85ZM77.9285 196.783V197.926H74.5388V200.706H79.0837V201.848H68.5974V200.706H73.1169V197.926H69.8035V192.657H71.2507V196.783H77.9285ZM81.2612 192.822V195.526H83.1528V192.822H84.4351V195.983H85.7681V191.959H87.1138V202.686H85.7681V197.151H84.4351V200.439H79.9282V192.822H81.2612ZM81.2612 199.284H83.1528V196.656H81.2612V199.284ZM89.4751 191.743V203.219H88.1167V191.743H89.4751ZM100.095 191.743V203.232H98.6731V191.743H100.095ZM93.9124 192.581C95.6389 192.581 96.8958 194.155 96.9085 196.631C96.8958 199.132 95.6389 200.693 93.9124 200.693C92.1731 200.693 90.9163 199.132 90.9163 196.631C90.9163 194.155 92.1731 192.581 93.9124 192.581ZM93.9124 193.85C92.9348 193.85 92.2747 194.879 92.2747 196.631C92.2747 198.395 92.9348 199.424 93.9124 199.424C94.8772 199.424 95.5374 198.395 95.5374 196.631C95.5374 194.879 94.8772 193.85 93.9124 193.85ZM105.7 193.774C105.7 195.386 106.602 196.973 108.366 197.634L107.579 198.725C106.354 198.243 105.478 197.284 105.002 196.097C104.507 197.367 103.58 198.376 102.26 198.89L101.498 197.773C103.326 197.113 104.266 195.488 104.278 193.774V192.403H105.7V193.774ZM111.134 191.756V200.274H109.725V196.719H107.63V195.59H109.725V194.46H107.63V193.317H109.725V191.756H111.134ZM111.388 201.848V202.991H103.567V199.436H105.002V201.848H111.388ZM43.5612 213.317C43.5612 215.094 45.3005 216.872 47.6999 217.291L47.0651 218.471C45.1418 218.065 43.5676 216.904 42.8249 215.361C42.0632 216.891 40.489 218.059 38.572 218.471L37.9499 217.291C40.3239 216.859 42.0505 215.082 42.0632 213.317V212.467H43.5612V213.317ZM48.1189 220.592V221.76H37.6325V220.592H48.1189ZM59.0815 218.573V219.728H56.5551V223.219H55.1333V219.728H52.5561V223.219H51.1469V219.728H48.5952V218.573H59.0815ZM57.9516 216.516V217.634H49.9409V212.238H57.8247V213.355H51.3374V214.358H57.5708V215.45H51.3374V216.516H57.9516ZM69.1301 211.743V223.232H67.7082V211.743H69.1301ZM65.8293 212.784V213.939H61.716V219.271C63.8298 219.265 65.1565 219.201 66.6799 218.928L66.8196 220.096C65.1819 220.401 63.6965 220.465 61.2717 220.465H60.2942V212.784H65.8293ZM75.7764 212.39C78.2393 212.39 80.0547 213.622 80.0547 215.488C80.0547 217.208 78.5757 218.357 76.4746 218.56V220.668H81.0449V221.823H70.5586V220.668H75.0781V218.56C72.9897 218.357 71.5107 217.208 71.5234 215.488C71.5107 213.622 73.3262 212.39 75.7764 212.39ZM75.7764 213.533C74.1006 213.52 72.8945 214.282 72.9072 215.488C72.8945 216.732 74.1006 217.469 75.7764 217.469C77.4775 217.469 78.6709 216.732 78.6709 215.488C78.6709 214.282 77.4775 213.52 75.7764 213.533ZM84.7398 222.09V220.896L87.9898 217.76C88.9165 216.834 89.3989 216.288 89.3989 215.513C89.3989 214.663 88.7261 214.117 87.8247 214.117C86.8726 214.117 86.2632 214.714 86.2759 215.64H84.7017C84.689 213.901 85.9966 212.771 87.8374 212.771C89.7163 212.771 90.9859 213.888 90.9859 215.437C90.9859 216.478 90.478 217.316 88.6753 219.017L87.0376 220.642V220.706H91.1255V222.09H84.7398ZM92.4016 222.09V212.898H98.2923V214.282H94.052V216.796H97.886V218.179H94.052V222.09H92.4016Z" fill="#FF60B9"/>
<path d="M273.211 45.533H270.088V36.3416H273.262C276.004 36.3416 277.667 38.0681 277.667 40.9246C277.667 43.7937 276.004 45.533 273.211 45.533ZM271.739 44.0984H273.122C275.039 44.0984 276.017 43.0447 276.017 40.9246C276.017 38.8171 275.039 37.7761 273.173 37.7761H271.739V44.0984ZM284.288 36.1765V37.3318H280.302V39.3757H284.085V40.4929H280.302V42.8542C282.066 42.8416 283.444 42.7781 285.05 42.5115L285.177 43.6541C283.412 43.9333 281.876 43.9968 279.819 43.9968H278.867V36.1765H284.288ZM287.386 35.1863V39.6296H289.15V40.8103H287.386V46.6628H285.977V35.1863H287.386ZM299.059 35.199V46.6501H297.625V44.0222H295.187V42.9558H297.625V35.199H299.059ZM289.322 41.0896C291.48 41.0896 294.349 41.0769 296.838 40.7341L296.927 41.7751C295.873 41.9592 294.787 42.0671 293.727 42.1306V46.3074H292.305V42.2068C291.302 42.2385 290.35 42.2449 289.5 42.2449L289.322 41.0896ZM293.093 35.6941C294.781 35.6941 296.012 36.6462 296.012 38.0173C296.012 39.4138 294.781 40.3279 293.093 40.3279C291.366 40.3279 290.147 39.4138 290.147 38.0173C290.147 36.6462 291.366 35.6941 293.093 35.6941ZM293.093 36.7732C292.128 36.7732 291.48 37.2683 291.48 38.0173C291.48 38.7917 292.128 39.2488 293.093 39.2488C294.007 39.2488 294.667 38.7917 294.667 38.0173C294.667 37.2683 294.007 36.7732 293.093 36.7732Z" fill="#222222"/>
<path d="M296.586 111.619V102.427H302.565V103.811H298.236V106.325H302.248V107.708H298.236V110.222H302.591V111.619H296.586ZM309.313 102.262V103.417H305.327V105.461H309.11V106.579H305.327V108.94C307.091 108.927 308.469 108.864 310.075 108.597L310.202 109.74C308.437 110.019 306.901 110.083 304.844 110.083H303.892V102.262H309.313ZM312.411 101.272V105.715H314.175V106.896H312.411V112.749H311.001V101.272H312.411ZM324.084 101.285V112.736H322.65V110.108H320.212V109.042H322.65V101.285H324.084ZM314.347 107.175C316.505 107.175 319.374 107.163 321.863 106.82L321.951 107.861C320.898 108.045 319.812 108.153 318.752 108.216V112.393H317.33V108.292C316.327 108.324 315.375 108.331 314.525 108.331L314.347 107.175ZM318.117 101.78C319.806 101.78 321.037 102.732 321.037 104.103C321.037 105.5 319.806 106.414 318.117 106.414C316.391 106.414 315.172 105.5 315.172 104.103C315.172 102.732 316.391 101.78 318.117 101.78ZM318.117 102.859C317.153 102.859 316.505 103.354 316.505 104.103C316.505 104.877 317.153 105.334 318.117 105.334C319.032 105.334 319.692 104.877 319.692 104.103C319.692 103.354 319.032 102.859 318.117 102.859Z" fill="#222222"/>
<path d="M330.42 238.623V229.431H336.311V230.815H332.071V233.329H335.905V234.712H332.071V238.623H330.42ZM342.868 229.266V230.421H338.882V232.465H342.665V233.583H338.882V235.944C340.647 235.938 342.03 235.861 343.63 235.601L343.757 236.744C341.999 237.029 340.45 237.086 338.399 237.086H337.447V229.266H342.868ZM344.557 239.752V228.276H345.966V232.719H347.731V233.9H345.966V239.752H344.557ZM357.639 228.289V239.74H356.205V237.112H353.767V236.045H356.205V228.289H357.639ZM347.902 234.179C350.06 234.173 352.929 234.167 355.418 233.824L355.507 234.865C354.453 235.042 353.367 235.157 352.307 235.227V239.397H350.886V235.296C349.883 235.334 348.93 235.334 348.08 235.334L347.902 234.179ZM348.727 231.107C348.727 229.742 349.946 228.784 351.673 228.784C353.361 228.784 354.593 229.742 354.593 231.107C354.593 232.503 353.361 233.411 351.673 233.417C349.946 233.411 348.727 232.503 348.727 231.107ZM350.06 231.107C350.054 231.875 350.708 232.338 351.673 232.338C352.587 232.338 353.247 231.875 353.247 231.107C353.247 230.358 352.593 229.863 351.673 229.863C350.708 229.863 350.054 230.358 350.06 231.107Z" fill="#222222"/>
</g>
<defs>
<clipPath id="clip0_1566_4766">
<rect width="378" height="301" fill="white"/>
</clipPath>
</defs>
</svg>
