<svg width="286" height="228" viewBox="0 0 286 228" fill="none" xmlns="http://www.w3.org/2000/svg">
<g clip-path="url(#clip0_1566_4787)">
<path d="M122.961 147.591H103.056V136.219V90H23.1908H0V136.219V195H23.1908H39.0495H103.056H122.961V147.591Z" fill="#222222"/>
<path d="M232.879 213.102H285.979V135.744H232.879V213.102ZM234.488 137.359H284.37V211.497H234.488V137.359Z" fill="#222222"/>
<path d="M262.38 57.2201V0.111328H168.387V48.378H183.952V109.092H286.001V57.2201H262.374H262.38ZM284.397 107.488H185.567V46.7737H170.001V1.72093H260.776V58.835H284.403V107.488H284.397Z" fill="#222222"/>
<path d="M130.839 35.7275L96.7584 -29L95.337 -28.2489L129.412 36.4787L142.312 60.9822H0V62.5918H143.16L190.735 152.944L153.983 181.499L125.781 123.682L125.556 123.231H125.352V123.215H118.315L121.308 120.232L120.182 119.126L115.263 124.03L120.182 128.95L121.308 127.829L118.315 124.851H124.558L153.404 183.988L190.955 154.811V228H192.564V152.966L130.839 35.7275Z" fill="#222222"/>
<path d="M12.4489 127.914C12.4372 129.303 13.2985 130.633 14.945 131.172L14.2419 132.191C13.1169 131.787 12.3024 131.002 11.8337 130.012C11.3708 131.148 10.4977 132.045 9.23795 132.496L8.54655 131.465C10.2633 130.873 11.1364 129.461 11.1364 127.949V127H12.4489V127.914ZM10.1637 136.914V133.035H17.0075V136.914H10.1637ZM11.4528 135.859H15.7184V134.078H11.4528V135.859ZM15.7067 132.602V126.449H17.0075V128.945H18.484V130.012H17.0075V132.602H15.7067ZM22.662 127.973C22.6562 129.414 23.4999 130.732 25.1581 131.254L24.455 132.273C23.3007 131.863 22.4921 131.09 22.0409 130.088C21.5722 131.242 20.6874 132.15 19.4042 132.602L18.7128 131.547C20.4648 130.973 21.3437 129.561 21.3495 128.031V127.023H22.662V127.973ZM20.4706 135.004C20.4589 133.715 21.8358 132.959 24.0683 132.965C26.3124 132.959 27.6835 133.715 27.6894 135.004C27.6835 136.293 26.3124 137.031 24.0683 137.031C21.8358 137.031 20.4589 136.293 20.4706 135.004ZM21.7597 135.004C21.7538 135.648 22.5976 136.006 24.0683 136.012C25.5507 136.006 26.3886 135.648 26.3886 135.004C26.3886 134.336 25.5507 133.979 24.0683 133.973C22.5976 133.979 21.7538 134.336 21.7597 135.004ZM24.244 129.566V128.5H26.3534V126.449H27.6542V132.684H26.3534V129.566H24.244ZM37.7853 126.461V134.195H36.4845V130.316H34.6095V129.262H36.4845V126.461H37.7853ZM28.8908 131.91C30.5783 131.354 31.4806 129.971 31.4806 128.559V128.277H29.2775V127.223H34.9962V128.277H32.8048V128.57C32.8048 129.842 33.6603 131.16 35.3009 131.699L34.6447 132.742C33.4611 132.338 32.6232 131.529 32.1603 130.527C31.6974 131.641 30.8126 132.531 29.5587 132.965L28.8908 131.91ZM30.8361 136.832V133.516H32.1369V135.777H38.0548V136.832H30.8361ZM42.8422 129.461C42.8363 131.096 43.8207 132.959 45.4906 133.738L44.764 134.77C43.5687 134.207 42.684 133.07 42.2094 131.746C41.7289 133.199 40.8031 134.441 39.5844 135.027L38.8226 134.008C40.5101 133.205 41.5355 131.225 41.5414 129.461V128.57H39.2328V127.492H45.057V128.57H42.8422V129.461ZM46.0414 137.043V126.449H47.3422V130.574H48.9711V131.664H47.3422V137.043H46.0414ZM55.6981 128.992C55.6922 130.961 56.6356 132.895 58.3231 133.633L57.538 134.676C56.3426 134.09 55.4989 132.965 55.0477 131.576C54.5848 133.041 53.7176 134.26 52.4989 134.875L51.6786 133.82C53.4071 133.012 54.368 130.973 54.3739 128.992V127.305H55.6981V128.992ZM57.1512 130.926V129.871H59.3778V126.449H60.6669V137.055H59.3778V130.926H57.1512ZM66.7315 126.555C69.1456 126.561 70.546 127.205 70.5519 128.371C70.546 129.555 69.1456 130.193 66.7315 130.199C64.3233 130.193 62.9112 129.555 62.9112 128.371C62.9112 127.205 64.3233 126.561 66.7315 126.555ZM61.9151 131.77V130.75H71.5714V131.77H67.3761V132.578H70.3644V135.168H64.3409V135.953H70.6573V136.949H63.0636V134.242H69.087V133.539H63.0519V132.578H66.0753V131.77H61.9151ZM64.2823 128.371C64.2765 128.957 65.1202 129.227 66.7315 129.238C68.3663 129.227 69.2042 128.957 69.2042 128.371C69.2042 127.826 68.3663 127.533 66.7315 127.527C65.1202 127.533 64.2765 127.826 64.2823 128.371ZM72.4798 136V127.516H75.6673C77.6126 127.516 78.6497 128.605 78.6556 130.223C78.6497 131.377 78.1224 132.232 77.1263 132.637L78.9603 136H77.2611L75.597 132.895H74.0033V136H72.4798ZM74.0033 131.617H75.433C76.5814 131.623 77.097 131.131 77.097 130.223C77.097 129.32 76.5814 128.793 75.433 128.793H74.0033V131.617ZM82.2008 136.117C80.4664 136.123 79.4 135.098 79.4 133.75C79.4 132.748 80.0445 132.139 80.9937 131.482C80.5074 130.879 80.1265 130.258 80.1265 129.508C80.1265 128.301 81.0055 127.41 82.3414 127.41C83.6773 127.41 84.5035 128.295 84.4976 129.332C84.5035 130.141 84.0816 130.756 83.3726 131.266L82.8336 131.664L84.3863 133.486C84.609 133.064 84.7437 132.566 84.7437 132.004H86.0328C86.0269 133.17 85.7047 133.996 85.2945 134.547L86.5367 136H84.9195L84.3746 135.379C83.7711 135.889 82.9449 136.123 82.2008 136.117ZM80.8648 133.68C80.8648 134.354 81.4098 134.893 82.2476 134.898C82.6988 134.898 83.1617 134.734 83.5601 134.447L81.7965 132.42L81.6617 132.52C81.0875 132.941 80.8648 133.387 80.8648 133.68ZM81.4508 129.531C81.4566 129.918 81.7144 130.311 82.066 130.75L82.5523 130.422C82.9976 130.135 83.232 129.83 83.232 129.402C83.232 129.033 82.9039 128.635 82.3648 128.641C81.8258 128.635 81.4566 129.068 81.4508 129.531ZM89.9881 136H87.1053V127.516H90.035C92.5662 127.516 94.0955 129.104 94.1014 131.746C94.0955 134.4 92.5662 136 89.9881 136ZM88.6287 134.676H89.9061C91.6815 134.682 92.5779 133.703 92.5779 131.746C92.5779 129.801 91.6815 128.834 89.9529 128.84H88.6287V134.676ZM31.0119 154H29.383L32.3712 145.516H34.2462L37.2462 154H35.6173L34.9083 151.902H31.715L31.0119 154ZM32.1251 150.672H34.4982L33.3439 147.25H33.2736L32.1251 150.672ZM43.018 145.363V146.43H39.3383V148.316H42.8305V149.348H39.3383V151.527C40.9672 151.521 42.2445 151.451 43.7211 151.211L43.8383 152.266C42.2152 152.529 40.7855 152.582 38.893 152.582H38.014V145.363H43.018ZM44.5765 155.043V144.449H45.8773V148.551H47.5062V149.641H45.8773V155.043H44.5765ZM56.653 144.461V155.031H55.3287V152.605H53.0787V151.621H55.3287V144.461H56.653ZM47.6647 149.898C49.6569 149.893 52.3053 149.887 54.6022 149.57L54.6842 150.531C53.7115 150.695 52.7096 150.801 51.7311 150.865V154.715H50.4186V150.93C49.4928 150.965 48.6139 150.965 47.8287 150.965L47.6647 149.898ZM48.4264 147.062C48.4264 145.803 49.5514 144.918 51.1451 144.918C52.7037 144.918 53.8405 145.803 53.8405 147.062C53.8405 148.352 52.7037 149.189 51.1451 149.195C49.5514 149.189 48.4264 148.352 48.4264 147.062ZM49.6569 147.062C49.651 147.771 50.2545 148.199 51.1451 148.199C51.9889 148.199 52.5983 147.771 52.5983 147.062C52.5983 146.371 51.9948 145.914 51.1451 145.914C50.2545 145.914 49.651 146.371 49.6569 147.062ZM60.8019 154V152.898L63.8019 150.004C64.6573 149.148 65.1026 148.645 65.1026 147.93C65.1026 147.139 64.4757 146.641 63.6495 146.641C62.7765 146.641 62.214 147.186 62.2198 148.047H60.7667C60.7608 146.441 61.9679 145.398 63.6612 145.398C65.3956 145.398 66.5616 146.436 66.5675 147.859C66.5616 148.814 66.1046 149.588 64.4347 151.164L62.923 152.664V152.723H66.6964V154H60.8019ZM67.8744 154V145.516H73.3119V146.793H69.3978V149.113H72.9369V150.391H69.3978V154H67.8744ZM35.664 162.461V167.816H34.4218V165.73H33.3085V167.734H32.078V162.66H33.3085V164.699H34.4218V162.461H35.664ZM26.6171 167.219C28.621 166.562 29.6347 165.52 29.828 164.125H27.0858V163.082H31.1991C31.1933 165.602 29.8866 167.236 27.2265 168.168L26.6171 167.219ZM28.4921 169.27V168.227H35.664V171.004H29.8046V171.883H36.039V172.914H28.5038V170.031H34.3749V169.27H28.4921ZM45.6076 162.449V173.055H44.3068V167.418H42.4904V166.352H44.3068V162.449H45.6076ZM37.088 164.43V163.375H41.881V167.254H38.4122V169.48C39.9884 169.475 41.254 169.422 42.6779 169.164L42.7833 170.23C41.2072 170.506 39.7892 170.564 37.9669 170.57H37.1232V166.199H40.6037V164.43H37.088ZM55.6918 162.449V173.055H54.4027V162.449H55.6918ZM47.4418 164.43V163.375H52.434V167.348H48.7894V169.48C50.4594 169.469 51.8949 169.381 53.5472 169.105L53.6644 170.172C51.8656 170.482 50.2836 170.553 48.3793 170.547H47.4535V166.316H51.1097V164.43H47.4418ZM63.4032 163.516V172H61.868V165.004H61.8212L59.8407 166.27V164.875L61.9383 163.516H63.4032ZM66.4679 171.168L65.4835 174.449H64.3702L64.9796 171.168H66.4679ZM70.1832 172V170.898L73.1832 168.004C74.0387 167.148 74.484 166.645 74.484 165.93C74.484 165.139 73.857 164.641 73.0308 164.641C72.1578 164.641 71.5953 165.186 71.6012 166.047H70.148C70.1422 164.441 71.3492 163.398 73.0426 163.398C74.7769 163.398 75.943 164.436 75.9488 165.859C75.943 166.814 75.4859 167.588 73.816 169.164L72.3043 170.664V170.723H76.0777V172H70.1832Z" fill="#FF60B9"/>
<path d="M204.798 31H201.915V22.5156H204.845C207.376 22.5156 208.911 24.1094 208.911 26.7461C208.911 29.3945 207.376 31 204.798 31ZM203.438 29.6758H204.716C206.485 29.6758 207.388 28.7031 207.388 26.7461C207.388 24.8008 206.485 23.8398 204.763 23.8398H203.438V29.6758ZM215.023 22.3633V23.4297H211.343V25.3164H214.835V26.3477H211.343V28.5273C212.972 28.5156 214.243 28.457 215.726 28.2109L215.843 29.2656C214.214 29.5234 212.796 29.582 210.898 29.582H210.019V22.3633H215.023ZM217.882 21.4492V25.5508H219.511V26.6406H217.882V32.043H216.581V21.4492H217.882ZM228.658 21.4609V32.0312H227.333V29.6055H225.083V28.6211H227.333V21.4609H228.658ZM219.669 26.8984C221.662 26.8984 224.31 26.8867 226.607 26.5703L226.689 27.5312C225.716 27.7012 224.714 27.8008 223.736 27.8594V31.7148H222.423V27.9297C221.498 27.959 220.619 27.9648 219.833 27.9648L219.669 26.8984ZM223.15 21.918C224.708 21.918 225.845 22.7969 225.845 24.0625C225.845 25.3516 224.708 26.1953 223.15 26.1953C221.556 26.1953 220.431 25.3516 220.431 24.0625C220.431 22.7969 221.556 21.918 223.15 21.918ZM223.15 22.9141C222.259 22.9141 221.662 23.3711 221.662 24.0625C221.662 24.7773 222.259 25.1992 223.15 25.1992C223.994 25.1992 224.603 24.7773 224.603 24.0625C224.603 23.3711 223.994 22.9141 223.15 22.9141Z" fill="#222222"/>
<path d="M222.087 85V76.5156H227.607V77.793H223.611V80.1133H227.314V81.3906H223.611V83.7109H227.63V85H222.087ZM233.835 76.3633V77.4297H230.156V79.3164H233.648V80.3477H230.156V82.5273C231.785 82.5156 233.056 82.457 234.538 82.2109L234.656 83.2656C233.027 83.5234 231.609 83.582 229.71 83.582H228.831V76.3633H233.835ZM236.695 75.4492V79.5508H238.324V80.6406H236.695V86.043H235.394V75.4492H236.695ZM247.47 75.4609V86.0312H246.146V83.6055H243.896V82.6211H246.146V75.4609H247.47ZM238.482 80.8984C240.474 80.8984 243.123 80.8867 245.42 80.5703L245.502 81.5312C244.529 81.7012 243.527 81.8008 242.548 81.8594V85.7148H241.236V81.9297C240.31 81.959 239.431 81.9648 238.646 81.9648L238.482 80.8984ZM241.963 75.918C243.521 75.918 244.658 76.7969 244.658 78.0625C244.658 79.3516 243.521 80.1953 241.963 80.1953C240.369 80.1953 239.244 79.3516 239.244 78.0625C239.244 76.7969 240.369 75.918 241.963 75.918ZM241.963 76.9141C241.072 76.9141 240.474 77.3711 240.474 78.0625C240.474 78.7773 241.072 79.1992 241.963 79.1992C242.806 79.1992 243.416 78.7773 243.416 78.0625C243.416 77.3711 242.806 76.9141 241.963 76.9141Z" fill="#222222"/>
<path d="M247.708 181V172.516H253.146V173.793H249.232V176.113H252.771V177.391H249.232V181H247.708ZM259.199 172.363V173.43H255.519V175.316H259.011V176.348H255.519V178.527C257.148 178.516 258.42 178.457 259.902 178.211L260.019 179.266C258.39 179.523 256.972 179.582 255.074 179.582H254.195V172.363H259.199ZM262.058 171.449V175.551H263.687V176.641H262.058V182.043H260.757V171.449H262.058ZM272.834 171.461V182.031H271.51V179.605H269.26V178.621H271.51V171.461H272.834ZM263.846 176.898C265.838 176.898 268.486 176.887 270.783 176.57L270.865 177.531C269.892 177.701 268.89 177.801 267.912 177.859V181.715H266.599V177.93C265.674 177.959 264.795 177.965 264.01 177.965L263.846 176.898ZM267.326 171.918C268.885 171.918 270.021 172.797 270.021 174.062C270.021 175.352 268.885 176.195 267.326 176.195C265.732 176.195 264.607 175.352 264.607 174.062C264.607 172.797 265.732 171.918 267.326 171.918ZM267.326 172.914C266.435 172.914 265.838 173.371 265.838 174.062C265.838 174.777 266.435 175.199 267.326 175.199C268.17 175.199 268.779 174.777 268.779 174.062C268.779 173.371 268.17 172.914 267.326 172.914Z" fill="#222222"/>
</g>
<defs>
<clipPath id="clip0_1566_4787">
<rect width="286" height="228" fill="white"/>
</clipPath>
</defs>
</svg>
