<svg width="286" height="228" viewBox="0 0 286 228" fill="none" xmlns="http://www.w3.org/2000/svg">
<g clip-path="url(#clip0_1566_4884)">
<path d="M122.961 147.591H103.056V136.219V90H23.1908H0V136.219V195H23.1908H39.0495H103.056H122.961V147.591Z" fill="#222222"/>
<path d="M232.879 213.102H285.979V135.744H232.879V213.102ZM234.488 137.359H284.37V211.497H234.488V137.359Z" fill="#222222"/>
<path d="M262.38 57.2201V0.111328H168.387V48.378H183.952V109.092H286.001V57.2201H262.374H262.38ZM284.397 107.488H185.567V46.7737H170.001V1.72093H260.776V58.835H284.403V107.488H284.397Z" fill="#222222"/>
<path d="M130.839 35.7275L96.7584 -29L95.337 -28.2489L129.412 36.4787L142.312 60.9822H0V62.5918H143.16L190.735 152.944L153.983 181.499L125.781 123.682L125.556 123.231H125.352V123.215H118.315L121.308 120.232L120.182 119.126L115.263 124.03L120.182 128.95L121.308 127.829L118.315 124.851H124.558L153.404 183.988L190.955 154.811V228H192.564V152.966L130.839 35.7275Z" fill="#222222"/>
<path d="M12.4489 127.914C12.4372 129.297 13.2926 130.633 14.945 131.172L14.2419 132.191C13.1169 131.787 12.3024 131.002 11.8395 130.012C11.3708 131.148 10.4919 132.045 9.23795 132.496L8.54655 131.465C10.2575 130.879 11.1364 129.461 11.1364 127.949V127H12.4489V127.914ZM17.0075 126.449V128.945H18.484V130.012H17.0075V132.602H15.7067V126.449H17.0075ZM17.0075 133.035V136.914H10.1637V133.035H17.0075ZM11.4528 134.078V135.859H15.7184V134.078H11.4528ZM22.662 127.973C22.6503 129.414 23.494 130.727 25.1581 131.254L24.455 132.273C23.3007 131.869 22.4921 131.102 22.0409 130.094C21.5722 131.248 20.6874 132.156 19.4042 132.602L18.7128 131.547C20.4706 130.973 21.3495 129.555 21.3495 128.031V127.023H22.662V127.973ZM27.6542 126.449V132.684H26.3534V129.566H24.244V128.5H26.3534V126.449H27.6542ZM24.0683 132.965C26.3183 132.965 27.6894 133.715 27.6894 135.004C27.6894 136.293 26.3183 137.031 24.0683 137.031C21.83 137.031 20.4589 136.293 20.4706 135.004C20.4589 133.715 21.83 132.965 24.0683 132.965ZM24.0683 133.973C22.5917 133.973 21.7597 134.336 21.7597 135.004C21.7597 135.648 22.5917 136.012 24.0683 136.012C25.5448 136.012 26.3886 135.648 26.3886 135.004C26.3886 134.336 25.5448 133.973 24.0683 133.973ZM37.7853 126.461V134.195H36.4845V130.316H34.6095V129.262H36.4845V126.461H37.7853ZM38.0548 135.777V136.832H30.8361V133.516H32.1369V135.777H38.0548ZM32.8048 128.57C32.8048 129.848 33.6603 131.16 35.3009 131.699L34.6447 132.742C33.4611 132.338 32.6232 131.535 32.1603 130.527C31.6915 131.646 30.8068 132.531 29.5587 132.965L28.8908 131.91C30.5783 131.359 31.4806 129.965 31.4806 128.559V128.277H29.2775V127.223H34.9962V128.277H32.8048V128.57ZM42.8422 129.461C42.8422 131.102 43.8148 132.965 45.4906 133.738L44.764 134.77C43.5687 134.207 42.684 133.07 42.2094 131.746C41.7289 133.199 40.8031 134.441 39.5844 135.027L38.8226 134.008C40.5101 133.211 41.5297 131.219 41.5414 129.461V128.57H39.2328V127.492H45.057V128.57H42.8422V129.461ZM47.3422 126.449V130.574H48.9711V131.664H47.3422V137.043H46.0414V126.449H47.3422ZM55.6981 128.992C55.6981 130.961 56.6356 132.895 58.3231 133.633L57.538 134.676C56.3368 134.09 55.493 132.965 55.0419 131.582C54.579 133.041 53.7176 134.254 52.4989 134.875L51.6786 133.82C53.4012 133.012 54.3622 130.973 54.3739 128.992V127.305H55.6981V128.992ZM60.6669 126.449V137.055H59.3778V130.926H57.1512V129.871H59.3778V126.449H60.6669ZM66.7315 126.555C69.1456 126.555 70.5401 127.199 70.5519 128.371C70.5401 129.555 69.1456 130.188 66.7315 130.199C64.3175 130.188 62.9112 129.555 62.9112 128.371C62.9112 127.199 64.3175 126.555 66.7315 126.555ZM66.7315 127.527C65.1144 127.527 64.2706 127.82 64.2823 128.371C64.2706 128.957 65.1144 129.227 66.7315 129.238C68.3722 129.227 69.2042 128.957 69.2042 128.371C69.2042 127.82 68.3722 127.527 66.7315 127.527ZM71.5714 130.75V131.77H67.3761V132.578H70.3644V135.168H64.3409V135.953H70.6573V136.949H63.0636V134.242H69.087V133.539H63.0519V132.578H66.0753V131.77H61.9151V130.75H71.5714ZM72.4798 136V127.516H75.6673C77.6126 127.516 78.6556 128.605 78.6556 130.223C78.6556 131.377 78.1283 132.232 77.1322 132.637L78.9603 136H77.2611L75.597 132.895H74.0033V136H72.4798ZM74.0033 131.617H75.433C76.5814 131.617 77.097 131.125 77.097 130.223C77.097 129.32 76.5814 128.793 75.433 128.793H74.0033V131.617ZM82.2008 136.117C80.4664 136.117 79.4 135.098 79.4 133.75C79.4 132.754 80.0504 132.133 80.9937 131.477C80.5015 130.879 80.1265 130.264 80.1265 129.508C80.1265 128.301 81.0055 127.41 82.3414 127.41C83.6773 127.41 84.4976 128.301 84.4976 129.332C84.4976 130.141 84.0758 130.75 83.3726 131.266L82.8336 131.664L84.3922 133.48C84.609 133.064 84.7437 132.566 84.7437 132.004H86.0328C86.0328 133.17 85.7105 133.996 85.2945 134.547L86.5367 136H84.9195L84.3805 135.379C83.7711 135.883 82.9508 136.117 82.2008 136.117ZM80.8648 133.68C80.8648 134.359 81.4039 134.898 82.2476 134.898C82.6988 134.898 83.1617 134.74 83.5719 134.441L81.8023 132.414L81.6617 132.52C81.0875 132.941 80.8648 133.387 80.8648 133.68ZM81.4508 129.531C81.4508 129.918 81.7144 130.311 82.0719 130.75L82.5523 130.422C82.9976 130.129 83.232 129.836 83.232 129.402C83.232 129.027 82.9039 128.629 82.3648 128.641C81.8258 128.641 81.4508 129.062 81.4508 129.531ZM89.9881 136H87.1053V127.516H90.035C92.5662 127.516 94.1014 129.109 94.1014 131.746C94.1014 134.395 92.5662 136 89.9881 136ZM88.6287 134.676H89.9061C91.6756 134.676 92.5779 133.703 92.5779 131.746C92.5779 129.801 91.6756 128.84 89.9529 128.84H88.6287V134.676ZM12.4226 154H10.7937L13.782 145.516H15.657L18.657 154H17.0281L16.325 151.902H13.1258L12.4226 154ZM13.5359 150.672H15.9148L14.7547 147.25H14.6844L13.5359 150.672ZM24.4287 145.363V146.43H20.749V148.316H24.2412V149.348H20.749V151.527C22.378 151.516 23.6494 151.457 25.1319 151.211L25.249 152.266C23.6201 152.523 22.2022 152.582 20.3037 152.582H19.4248V145.363H24.4287ZM27.2881 144.449V148.551H28.917V149.641H27.2881V155.043H25.9873V144.449H27.2881ZM38.0637 144.461V155.031H36.7395V152.605H34.4895V151.621H36.7395V144.461H38.0637ZM29.0755 149.898C31.0676 149.898 33.7161 149.887 36.013 149.57L36.095 150.531C35.1223 150.701 34.1204 150.801 33.1419 150.859V154.715H31.8294V150.93C30.9036 150.959 30.0247 150.965 29.2395 150.965L29.0755 149.898ZM32.5559 144.918C34.1145 144.918 35.2512 145.797 35.2512 147.062C35.2512 148.352 34.1145 149.195 32.5559 149.195C30.9622 149.195 29.8372 148.352 29.8372 147.062C29.8372 145.797 30.9622 144.918 32.5559 144.918ZM32.5559 145.914C31.6653 145.914 31.0676 146.371 31.0676 147.062C31.0676 147.777 31.6653 148.199 32.5559 148.199C33.3997 148.199 34.009 147.777 34.009 147.062C34.009 146.371 33.3997 145.914 32.5559 145.914ZM50.6736 144.449V155.055H49.3611V144.449H50.6736ZM44.9665 145.223C46.5603 145.223 47.7205 146.676 47.7322 148.961C47.7205 151.27 46.5603 152.711 44.9665 152.711C43.3611 152.711 42.2009 151.27 42.2009 148.961C42.2009 146.676 43.3611 145.223 44.9665 145.223ZM44.9665 146.395C44.0642 146.395 43.4548 147.344 43.4548 148.961C43.4548 150.59 44.0642 151.539 44.9665 151.539C45.8572 151.539 46.4665 150.59 46.4665 148.961C46.4665 147.344 45.8572 146.395 44.9665 146.395ZM60.6054 149.102V150.156H57.4765V152.723H61.6719V153.777H51.9922V152.723H56.164V150.156H53.1054V145.293H54.4414V149.102H60.6054ZM63.6819 145.445V147.941H65.428V145.445H66.6115V148.363H67.842V144.648H69.0842V154.551H67.842V149.441H66.6115V152.477H62.4514V145.445H63.6819ZM63.6819 151.41H65.428V148.984H63.6819V151.41ZM71.2639 144.449V155.043H70.01V144.449H71.2639ZM81.0669 144.449V155.055H79.7544V144.449H81.0669ZM75.3598 145.223C76.9536 145.223 78.1137 146.676 78.1255 148.961C78.1137 151.27 76.9536 152.711 75.3598 152.711C73.7544 152.711 72.5942 151.27 72.5942 148.961C72.5942 146.676 73.7544 145.223 75.3598 145.223ZM75.3598 146.395C74.4575 146.395 73.8481 147.344 73.8481 148.961C73.8481 150.59 74.4575 151.539 75.3598 151.539C76.2505 151.539 76.8598 150.59 76.8598 148.961C76.8598 147.344 76.2505 146.395 75.3598 146.395ZM86.2409 146.324C86.2409 147.812 87.073 149.277 88.7019 149.887L87.9753 150.895C86.8444 150.449 86.0358 149.564 85.5964 148.469C85.1394 149.641 84.2839 150.572 83.0651 151.047L82.362 150.016C84.0495 149.406 84.9167 147.906 84.9284 146.324V145.059H86.2409V146.324ZM91.2565 144.461V152.324H89.9558V149.043H88.0222V148H89.9558V146.957H88.0222V145.902H89.9558V144.461H91.2565ZM91.4909 153.777V154.832H84.2722V151.551H85.5964V153.777H91.4909ZM28.8819 163.902C28.8819 165.543 30.4873 167.184 32.7022 167.57L32.1162 168.66C30.3408 168.285 28.8877 167.213 28.2022 165.789C27.499 167.201 26.0459 168.279 24.2764 168.66L23.7022 167.57C25.8936 167.172 27.4873 165.531 27.499 163.902V163.117H28.8819V163.902ZM33.0889 170.617V171.695H23.4092V170.617H33.0889ZM43.2083 168.754V169.82H40.8762V173.043H39.5637V169.82H37.1848V173.043H35.884V169.82H33.5286V168.754H43.2083ZM42.1653 166.855V167.887H34.7708V162.906H42.0481V163.938H36.0598V164.863H41.8137V165.871H36.0598V166.855H42.1653ZM52.4839 162.449V173.055H51.1714V162.449H52.4839ZM49.437 163.41V164.477H45.6401V169.398C47.5913 169.393 48.8159 169.334 50.2222 169.082L50.3511 170.16C48.8394 170.441 47.4683 170.5 45.23 170.5H44.3276V163.41H49.437ZM58.6189 163.047C60.8923 163.047 62.5681 164.184 62.5681 165.906C62.5681 167.494 61.2029 168.555 59.2634 168.742V170.688H63.4822V171.754H53.8025V170.688H57.9744V168.742C56.0466 168.555 54.6814 167.494 54.6931 165.906C54.6814 164.184 56.3572 163.047 58.6189 163.047ZM58.6189 164.102C57.072 164.09 55.9587 164.793 55.9705 165.906C55.9587 167.055 57.072 167.734 58.6189 167.734C60.1892 167.734 61.2908 167.055 61.2908 165.906C61.2908 164.793 60.1892 164.09 58.6189 164.102ZM66.8928 172V170.898L69.8928 168.004C70.7483 167.148 71.1936 166.645 71.1936 165.93C71.1936 165.145 70.5725 164.641 69.7404 164.641C68.8615 164.641 68.299 165.191 68.3108 166.047H66.8576C66.8459 164.441 68.0529 163.398 69.7522 163.398C71.4865 163.398 72.6584 164.43 72.6584 165.859C72.6584 166.82 72.1897 167.594 70.5256 169.164L69.0139 170.664V170.723H72.7873V172H66.8928ZM73.9653 172V163.516H79.4028V164.793H75.4887V167.113H79.0278V168.391H75.4887V172H73.9653Z" fill="#FF60B9"/>
<path d="M204.798 33H201.915V24.5156H204.845C207.376 24.5156 208.911 26.1094 208.911 28.7461C208.911 31.3945 207.376 33 204.798 33ZM203.438 31.6758H204.716C206.485 31.6758 207.388 30.7031 207.388 28.7461C207.388 26.8008 206.485 25.8398 204.763 25.8398H203.438V31.6758ZM215.023 24.3633V25.4297H211.343V27.3164H214.835V28.3477H211.343V30.5273C212.972 30.5156 214.243 30.457 215.726 30.2109L215.843 31.2656C214.214 31.5234 212.796 31.582 210.898 31.582H210.019V24.3633H215.023ZM217.882 23.4492V27.5508H219.511V28.6406H217.882V34.043H216.581V23.4492H217.882ZM228.658 23.4609V34.0312H227.333V31.6055H225.083V30.6211H227.333V23.4609H228.658ZM219.669 28.8984C221.662 28.8984 224.31 28.8867 226.607 28.5703L226.689 29.5312C225.716 29.7012 224.714 29.8008 223.736 29.8594V33.7148H222.423V29.9297C221.498 29.959 220.619 29.9648 219.833 29.9648L219.669 28.8984ZM223.15 23.918C224.708 23.918 225.845 24.7969 225.845 26.0625C225.845 27.3516 224.708 28.1953 223.15 28.1953C221.556 28.1953 220.431 27.3516 220.431 26.0625C220.431 24.7969 221.556 23.918 223.15 23.918ZM223.15 24.9141C222.259 24.9141 221.662 25.3711 221.662 26.0625C221.662 26.7773 222.259 27.1992 223.15 27.1992C223.994 27.1992 224.603 26.7773 224.603 26.0625C224.603 25.3711 223.994 24.9141 223.15 24.9141Z" fill="#222222"/>
<path d="M222.087 85V76.5156H227.607V77.793H223.611V80.1133H227.314V81.3906H223.611V83.7109H227.63V85H222.087ZM233.835 76.3633V77.4297H230.156V79.3164H233.648V80.3477H230.156V82.5273C231.785 82.5156 233.056 82.457 234.538 82.2109L234.656 83.2656C233.027 83.5234 231.609 83.582 229.71 83.582H228.831V76.3633H233.835ZM236.695 75.4492V79.5508H238.324V80.6406H236.695V86.043H235.394V75.4492H236.695ZM247.47 75.4609V86.0312H246.146V83.6055H243.896V82.6211H246.146V75.4609H247.47ZM238.482 80.8984C240.474 80.8984 243.123 80.8867 245.42 80.5703L245.502 81.5312C244.529 81.7012 243.527 81.8008 242.548 81.8594V85.7148H241.236V81.9297C240.31 81.959 239.431 81.9648 238.646 81.9648L238.482 80.8984ZM241.963 75.918C243.521 75.918 244.658 76.7969 244.658 78.0625C244.658 79.3516 243.521 80.1953 241.963 80.1953C240.369 80.1953 239.244 79.3516 239.244 78.0625C239.244 76.7969 240.369 75.918 241.963 75.918ZM241.963 76.9141C241.072 76.9141 240.474 77.3711 240.474 78.0625C240.474 78.7773 241.072 79.1992 241.963 79.1992C242.806 79.1992 243.416 78.7773 243.416 78.0625C243.416 77.3711 242.806 76.9141 241.963 76.9141Z" fill="#222222"/>
<path d="M247.802 172.516H253.064V173.629H249.091V176.195H252.689V177.297H249.091V181H247.802V172.516ZM259.175 173.336H255.355V175.363H258.964V176.254H255.355V178.609C256.265 178.605 257.07 178.58 257.769 178.533C258.468 178.486 259.187 178.402 259.925 178.281L260.031 179.184C259.265 179.312 258.507 179.4 257.757 179.447C257.007 179.49 256.113 179.512 255.074 179.512H254.23V172.422H259.175V173.336ZM261.964 175.633H263.652V176.57H261.964V181.996H260.851V171.496H261.964V175.633ZM272.693 181.996H271.568V179.488H269.248V178.645H271.568V171.508H272.693V181.996ZM263.869 176.969C265.326 176.961 266.594 176.938 267.672 176.898C268.754 176.859 269.799 176.77 270.806 176.629L270.865 177.449C269.967 177.609 268.951 177.725 267.818 177.795V181.668H266.705V177.854C265.959 177.881 265.064 177.895 264.021 177.895L263.869 176.969ZM267.326 171.988C267.838 171.988 268.295 172.078 268.697 172.258C269.103 172.434 269.42 172.682 269.646 173.002C269.873 173.318 269.986 173.68 269.986 174.086C269.986 174.5 269.873 174.865 269.646 175.182C269.42 175.498 269.103 175.742 268.697 175.914C268.295 176.086 267.838 176.172 267.326 176.172C266.803 176.172 266.338 176.086 265.931 175.914C265.525 175.742 265.209 175.498 264.982 175.182C264.756 174.865 264.642 174.5 264.642 174.086C264.642 173.676 264.756 173.312 264.982 172.996C265.209 172.676 265.525 172.428 265.931 172.252C266.338 172.076 266.803 171.988 267.326 171.988ZM267.326 172.844C267.006 172.844 266.721 172.896 266.471 173.002C266.224 173.104 266.033 173.25 265.896 173.441C265.76 173.629 265.693 173.844 265.697 174.086C265.693 174.332 265.76 174.549 265.896 174.736C266.033 174.92 266.224 175.062 266.471 175.164C266.717 175.266 267.002 175.316 267.326 175.316C267.638 175.316 267.916 175.266 268.158 175.164C268.4 175.062 268.59 174.92 268.726 174.736C268.863 174.549 268.931 174.332 268.931 174.086C268.931 173.844 268.863 173.629 268.726 173.441C268.59 173.25 268.398 173.104 268.152 173.002C267.91 172.896 267.635 172.844 267.326 172.844Z" fill="#222222"/>
</g>
<defs>
<clipPath id="clip0_1566_4884">
<rect width="286" height="228" fill="white"/>
</clipPath>
</defs>
</svg>
